<svg width="720" height="520" viewBox="0 0 720 520" fill="none" xmlns="http://www.w3.org/2000/svg">
  <defs>
    <linearGradient id="bg" x1="86" y1="43" x2="627" y2="470" gradientUnits="userSpaceOnUse">
      <stop stop-color="#12283D"/>
      <stop offset="1" stop-color="#0A1522"/>
    </linearGradient>
    <linearGradient id="accent" x1="175" y1="112" x2="555" y2="378" gradientUnits="userSpaceOnUse">
      <stop stop-color="#16C47F"/>
      <stop offset="1" stop-color="#49A2FF"/>
    </linearGradient>
  </defs>
  <rect x="22" y="18" width="676" height="484" rx="32" fill="url(#bg)" stroke="rgba(255,255,255,0.12)"/>
  <rect x="54" y="50" width="612" height="54" rx="20" fill="rgba(255,255,255,0.05)"/>
  <rect x="74" y="68" width="116" height="18" rx="9" fill="#16C47F" opacity="0.9"/>
  <rect x="500" y="67" width="64" height="20" rx="10" fill="rgba(255,255,255,0.09)"/>
  <rect x="578" y="67" width="64" height="20" rx="10" fill="rgba(255,255,255,0.09)"/>
  <rect x="54" y="132" width="298" height="320" rx="28" fill="rgba(255,255,255,0.05)"/>
  <rect x="380" y="132" width="286" height="152" rx="28" fill="rgba(255,255,255,0.05)"/>
  <rect x="380" y="300" width="286" height="152" rx="28" fill="rgba(255,255,255,0.05)"/>
  <rect x="84" y="166" width="188" height="20" rx="10" fill="rgba(255,255,255,0.1)"/>
  <rect x="84" y="204" width="236" height="64" rx="22" fill="url(#accent)"/>
  <rect x="84" y="288" width="236" height="64" rx="22" fill="rgba(255,255,255,0.06)"/>
  <rect x="84" y="372" width="236" height="44" rx="18" fill="rgba(255,255,255,0.08)"/>
  <rect x="410" y="164" width="96" height="18" rx="9" fill="rgba(255,255,255,0.12)"/>
  <rect x="410" y="198" width="224" height="18" rx="9" fill="#49A2FF" opacity="0.75"/>
  <rect x="410" y="228" width="164" height="14" rx="7" fill="rgba(255,255,255,0.08)"/>
  <rect x="410" y="332" width="96" height="18" rx="9" fill="rgba(255,255,255,0.12)"/>
  <rect x="410" y="366" width="224" height="18" rx="9" fill="#16C47F" opacity="0.75"/>
  <rect x="410" y="396" width="164" height="14" rx="7" fill="rgba(255,255,255,0.08)"/>
  <circle cx="585" cy="176" r="24" fill="rgba(22,196,127,0.12)" stroke="#16C47F"/>
  <circle cx="585" cy="344" r="24" fill="rgba(73,162,255,0.12)" stroke="#49A2FF"/>
  <path d="M575 176l7 7 13-14" stroke="#16C47F" stroke-width="3.2" stroke-linecap="round" stroke-linejoin="round"/>
  <path d="M575 344h20M585 334v20" stroke="#49A2FF" stroke-width="3.2" stroke-linecap="round"/>
</svg>
